<svg width="923" height="1280" xmlns="http://www.w3.org/2000/svg" preserveAspectRatio="xMidYMid meet" version="1.0">
 <metadata>Created by potrace 1.15, written by Peter Selinger 2001-2017</metadata>

 <g>
  <title>Layer 1</title>
  <path fill="#ffffff" stroke="#ffffff" id="svg_3" d="m280.79611,30.59998c-5.10504,0.9 -13.29437,3.7 -17.2295,5.7c-3.82878,2 -4.04149,2.3 -4.04149,7.3l0,5.3l-3.40336,-1c-5.74317,-1.5 -27.22687,-5.7 -39.13862,-7.5c-14.99605,-2.3 -37.64965,-2.4 -46.68982,-0.1c-3.72242,0.9 -8.93382,2.8 -11.69904,4c-4.78597,2.3 -4.89233,2.5 -5.21139,7.4l-0.31906,5l-8.5084,-1.8c-23.6108,-5.2 -32.97003,-6.3 -53.60289,-6.4c-21.27099,0 -25.20612,0.6 -35.94797,5.7c-3.72242,1.7 -3.93513,2.1 -3.93513,6.7l0,4.9l-5.10504,0.6c-2.76523,0.3 -9.78465,0.8 -15.63418,1.1c-5.84952,0.3 -15.1024,1.1 -20.63286,1.7l-9.99736,1.2l0.74448,8c0.31906,4.5 0.63813,9.4 0.63813,10.9l0,2.8l25.09977,-0.7l25.20612,-0.7l-0.74448,96.4c-0.42542,53 -1.1699,176.3 -1.70168,273.9c-1.48897,252.1 -2.97794,500.70001 -3.82878,627.60001l-0.74448,109l14.88969,5l14.99605,5l34.88442,-7.7c19.25024,-4.3 35.62891,-7.8 36.26704,-7.9c1.06355,0 1.27626,2.4 0.85084,10l-0.53177,10l3.50971,1.3c1.80803,0.7 8.72111,3.1 15.20876,5.2l11.69904,3.8l37.756,-8.5l37.64965,-8.5l0.31906,10.2l0.31906,10.2l15.1024,5.2l15.1024,5.2l40.94665,-9.4c22.54725,-5.2 43.39282,-10 46.47711,-10.7l5.4241,-1.2l48.28514,18.1c26.58874,10 48.49785,18.1 48.71056,18.1c0.53177,0 -43.60553,-1214.70002 -44.1373,-1216.60002c-0.21271,-0.7 -9.99736,0 -30.52387,2.2c-16.48502,1.8 -30.2048,3.3 -30.31116,3.4c-0.21271,0 -0.42542,13.6 -0.53177,30.2l-0.31906,30.3l-0.21271,-29.7c-0.31906,-27 -0.53177,-29.8 -2.23345,-30.7c-2.02074,-1 -22.22818,-5.4 -35.84162,-7.8c-8.29569,-1.4 -42.0102,-2.6 -47.32795,-1.7zm86.89199,144.1c-0.10635,4.9 -0.31906,0.9 -0.31906,-8.7c0,-9.6 0.21271,-13.6 0.31906,-8.8c0.21271,4.9 0.21271,12.7 0,17.5zm1.06355,133.5c-0.10635,4.6 -0.31906,0.9 -0.31906,-8.2c0,-9.1 0.21271,-12.8 0.31906,-8.3c0.21271,4.6 0.21271,12 0,16.5z"/>
  <path fill="#ffffff" stroke="#ffffff" id="svg_8" d="m605.01076,30.59998c5.73649,0.9 14.93879,3.7 19.36067,5.7c4.30237,2 4.54139,2.3 4.54139,7.3l0,5.3l3.82433,-1c6.45356,-1.5 30.59464,-5.7 43.97979,-7.5c16.85095,-2.3 42.30665,-2.4 52.46503,-0.1c4.18286,0.9 10.03887,2.8 13.14613,4c5.37796,2.3 5.49747,2.5 5.85601,7.4l0.35853,5l9.56082,-1.8c26.53129,-5.2 37.0482,-6.3 60.2332,-6.4c23.90206,0 28.32394,0.6 40.39448,5.7c4.18286,1.7 4.42188,2.1 4.42188,6.7l0,4.9l5.73649,0.6c3.10727,0.3 10.99495,0.8 17.56802,1.1c6.57307,0.3 16.97046,1.1 23.185,1.7l11.23397,1.2l-0.83657,8c-0.35853,4.5 -0.71706,9.4 -0.71706,10.9l0,2.8l-28.20443,-0.7l-28.32394,-0.7l0.83657,96.4c0.47804,53 1.31461,176.30001 1.91216,273.90001c1.67314,252.1 3.34629,500.70001 4.30237,627.60001l0.83657,109l-16.73144,5l-16.85095,5l-39.19938,-7.7c-21.63137,-4.3 -40.03595,-7.8 -40.75301,-7.9c-1.1951,0 -1.43412,2.4 -0.95608,10l0.59755,10l-3.94384,1.3c-2.03168,0.7 -9.79985,3.1 -17.08997,5.2l-13.14613,3.8l-42.42616,-8.5l-42.30665,-8.5l-0.35853,10.2l-0.35853,10.2l-16.97046,5.2l-16.97046,5.2l-46.01147,-9.4c-25.33619,-5.2 -48.76022,-10 -52.22602,-10.7l-6.09503,-1.2l-54.25768,18.1c-29.87758,10 -54.4967,18.1 -54.73572,18.1c-0.59755,0 48.99923,-1214.70002 49.59678,-1216.60002c0.23902,-0.7 11.23397,0 34.29946,2.2c18.5241,1.8 33.94093,3.3 34.06044,3.4c0.23902,0 0.47804,13.6 0.59755,30.2l0.35853,30.3l0.23902,-29.7c0.35853,-27 0.59755,-29.8 2.50972,-30.7c2.2707,-1 24.97767,-5.4 40.27499,-7.8c9.3218,-1.4 47.20657,-2.6 53.18209,-1.7zm-97.63993,144.1c0.11951,4.9 0.35853,0.9 0.35853,-8.7c0,-9.6 -0.23902,-13.6 -0.35853,-8.8c-0.23902,4.9 -0.23902,12.7 0,17.5zm-1.1951,133.50001c0.11951,4.6 0.35853,0.9 0.35853,-8.2c0,-9.1 -0.23902,-12.8 -0.35853,-8.3c-0.23902,4.6 -0.23902,12 0,16.5z"/>
 </g>
</svg>
