<svg width="923" height="1280" xmlns="http://www.w3.org/2000/svg" preserveAspectRatio="xMidYMid meet" version="1.0">
 <metadata>Created by potrace 1.15, written by Peter Selinger 2001-2017</metadata>

 <g>
  <title>Layer 1</title>
  <path fill="#ffffff" stroke="#ffffff" id="svg_2" d="m792.00001,1.49998c-13.9,3 -29.3,9.6 -43.9,18.8c-9,5.7 -11.9,5.3 -34.3,-5c-14.3,-6.5 -21,-8.3 -30.5,-8.3c-12.4,0 -24.4,5.1 -39.8,16.9c-6.7,5.2 -8.5,6.1 -12,6.1c-6.5,0 -13.3,-2.5 -23.5,-8.6c-11,-6.7 -16.4,-8.9 -24.1,-9.9c-11.6,-1.4 -31,3.7 -52.4,13.9l-11.4,5.4l-11.3,-2.3c-6.2,-1.3 -17.8,-3.8 -25.8,-5.5c-17.1,-3.7 -33.5,-4.8 -43.5,-3.1c-10,1.7 -20.4,7 -27.5,14l-6,5.9l0,6.3c0,7.7 2.9,31.7 6.4,52.4c8.9,54.1 26.6,131.6 44.7,196c57.4,204.5 134.4,370.40001 219.2,472.00001l7.6,9l-3.1,0.8l-3.1,0.8l0.6,8.7c0.9,12 3.9,22.9 9.7,34.8l4.9,10.2l-10.9,32.8c-30.4,91.7 -45.1,158.4 -52.7,238.4c-1.3,14 -1.7,28.6 -1.7,60c-0.1,22.8 0.3,43.6 0.7,46.2c0.7,4.3 1.2,4.9 8,9.6c19.8,13.6 52.8,26.1 95.5,36.1c14.4,3.4 36.3,7.3 37,6.6c1.5,-1.4 2.2,-68.7 1.2,-108.9c-1.1,-44.3 -0.9,-58.2 0.4,-32.4c0.3,7.3 1.3,25.4 2.1,40.3c0.8,14.8 1.9,41.6 2.5,59.5c0.6,17.9 1.3,35.3 1.6,38.7l0.6,6.3l19.1,0.2l19.1,0.3l0.7,3.3c0.4,1.8 1,3.6 1.3,4c1.1,1 2.6,-2 2.6,-5.1l0,-2.7l5.8,0.7c8.6,1.2 26,0.8 32.2,-0.6c4.9,-1.1 18.9,-5.7 19.6,-6.4c0.2,-0.1 -1.7,-41.9 -4.2,-92.7c-2.4,-50.9 -6.2,-130.3 -8.4,-176.5c-2.2,-46.2 -5.4,-111.8 -7,-145.8c-1.7,-34 -3,-63.1 -3,-64.7c0,-2.4 0.9,-3.4 6.3,-6.6c3.4,-2 6.7,-4.1 7.3,-4.6c0.8,-0.6 -1.9,-8.9 -9.2,-28.3l-10.4,-27.4l-1.1,-38.1c-1.5,-53.7 -0.2,-119.1 6.6,-325.5c3.3,-103.1 3.9,-133.2 3.9,-217.6l0.1,-88.6l26.3,-0.7c14.5,-0.3 29,-0.9 32.3,-1.3l5.9,-0.6l0,-10.8l0,-10.9l-11.2,0c-6.2,0 -21.1,-0.3 -33,-0.7l-21.8,-0.6l0,-2.8c0,-2.5 -0.5,-2.9 -3.7,-3.4c-2.1,-0.4 -9.4,-2.2 -16.3,-4c-21.2,-5.8 -32.1,-6.7 -45,-4zm-23.3,1100.20002c-0.2,1.6 -0.4,0.5 -0.4,-2.2c0,-2.8 0.2,-4 0.4,-2.8c0.2,1.3 0.2,3.5 0,5z"/>
  <path fill="#ffffff" stroke="#ffffff" id="svg_6" d="m119.45478,14.44116c12.60632,3 26.57302,9.6 39.81419,18.8c8.16236,5.7 10.79246,5.3 31.10767,-5c12.96909,-6.5 19.04551,-8.3 27.66134,-8.3c11.24592,0 22.12907,5.1 36.09578,16.9c6.07643,5.2 7.7089,6.1 10.88315,6.1c5.89504,0 12.06216,-2.5 21.31283,-8.6c9.97622,-6.7 14.87364,-8.9 21.85699,-9.9c10.52038,-1.4 28.1148,3.7 47.52309,13.9l10.33899,5.4l10.2483,-2.3c5.62296,-1.3 16.14334,-3.8 23.39877,-5.5c15.50849,-3.7 30.38213,-4.8 39.45142,-3.1c9.06929,1.7 18.50135,7 24.94055,14l5.44157,5.9l0,6.3c0,7.7 -2.63009,31.7 -5.80435,52.4c-8.07167,54.1 -24.12432,131.6 -40.53973,196.00001c-52.05773,204.5 -121.89128,370.4 -198.79887,472l-6.89266,9l2.81148,0.8l2.81148,0.8l-0.54416,8.7c-0.81624,12 -3.53702,22.9 -8.79721,34.8l-4.44395,10.2l9.88553,32.8c27.57065,91.70001 40.9025,158.40001 47.79517,238.40001c1.17901,14 1.54178,28.6 1.54178,60c0.09069,22.8 -0.27208,43.6 -0.63485,46.2c-0.63485,4.3 -1.08831,4.9 -7.25543,9.6c-17.9572,13.6 -47.88586,26.1 -86.61173,36.1c-13.05978,3.4 -32.92153,7.3 -33.55638,6.6c-1.36039,-1.4 -1.99524,-68.7 -1.08831,-108.9c0.99762,-44.3 0.81624,-58.2 -0.36277,-32.4c-0.27208,7.3 -1.17901,25.4 -1.90455,40.3c-0.72554,14.8 -1.72317,41.6 -2.26732,59.5c-0.54416,17.9 -1.17901,35.3 -1.45109,38.7l-0.54416,6.3l-17.32235,0.2l-17.32235,0.3l-0.63485,3.3c-0.36277,1.8 -0.90693,3.6 -1.17901,4c-0.99762,1 -2.35802,-2 -2.35802,-5.1l0,-2.7l-5.26019,0.7c-7.79959,1.2 -23.58016,0.8 -29.20312,-0.6c-4.44395,-1.1 -17.14096,-5.7 -17.77581,-6.4c-0.18139,-0.1 1.54178,-41.9 3.8091,-92.7c2.17663,-50.9 5.62296,-130.3 7.6182,-176.5c1.99524,-46.20001 4.89742,-111.80001 6.3485,-145.80001c1.54178,-34 2.72079,-63.1 2.72079,-64.7c0,-2.4 -0.81624,-3.4 -5.71365,-6.6c-3.08356,-2 -6.07643,-4.1 -6.62058,-4.6c-0.72554,-0.6 1.72317,-8.9 8.34375,-28.3l9.43206,-27.4l0.99762,-38.1c1.36039,-53.7 0.18139,-119.1 -5.98573,-325.5c-2.99287,-103.10001 -3.53702,-133.20001 -3.53702,-217.60001l-0.09069,-88.6l-23.85224,-0.7c-13.15047,-0.3 -26.30095,-0.9 -29.29381,-1.3l-5.35088,-0.6l0,-10.8l0,-10.9l10.15761,0c5.62296,0 19.1362,-0.3 29.92866,-0.7l19.77106,-0.6l0,-2.8c0,-2.5 0.45346,-2.9 3.35564,-3.4c1.90455,-0.4 8.52513,-2.2 14.78294,-4c19.2269,-5.8 29.11243,-6.7 40.81181,-4zm21.13145,1100.20002c0.18139,1.6 0.36277,0.5 0.36277,-2.2c0,-2.8 -0.18139,-4 -0.36277,-2.8c-0.18139,1.3 -0.18139,3.5 0,5z"/>
 </g>
</svg>
